<svg width="800" height="220" viewBox="0 0 800 220" xmlns="http://www.w3.org/2000/svg">
  <rect width="800" height="220" rx="12" fill="#0f172a"/>
  <circle cx="680" cy="40" r="100" fill="#14b8a6" opacity="0.07"/>
  <circle cx="720" cy="190" r="70" fill="#14b8a6" opacity="0.05"/>
  <circle cx="100" cy="200" r="80" fill="#14b8a6" opacity="0.05"/>
  <rect x="40" y="60" width="60" height="60" rx="30" fill="#14b8a6" opacity="0.15"/>
  <ellipse cx="70" cy="89" rx="18" ry="15" fill="#14b8a6"/>
  <polygon points="58,102 70,110 82,102" fill="#14b8a6"/>
  <circle cx="63" cy="89" r="3" fill="#0f172a"/>
  <circle cx="70" cy="89" r="3" fill="#0f172a"/>
  <circle cx="77" cy="89" r="3" fill="#0f172a"/>
  <text x="116" y="100" font-family="Georgia, serif" font-size="42" font-weight="700" fill="#f1f5f9">Bai</text>
  <text x="188" y="100" font-family="Georgia, serif" font-size="42" font-weight="700" fill="#14b8a6">thak</text>
  <text x="116" y="128" font-family="sans-serif" font-size="15" fill="#94a3b8">Real-time chat · Video calls · File sharing · Google OAuth</text>
  <line x1="40" y1="152" x2="760" y2="152" stroke="#1e293b" stroke-width="1"/>
  <rect x="40" y="168" width="110" height="30" rx="15" fill="#14b8a6" opacity="0.12"/>
  <text x="95" y="188" font-family="sans-serif" font-size="13" fill="#14b8a6" text-anchor="middle">⚡ Real-time</text>
  <rect x="160" y="168" width="120" height="30" rx="15" fill="#14b8a6" opacity="0.12"/>
  <text x="220" y="188" font-family="sans-serif" font-size="13" fill="#14b8a6" text-anchor="middle">📹 Video calls</text>
  <rect x="290" y="168" width="120" height="30" rx="15" fill="#14b8a6" opacity="0.12"/>
  <text x="350" y="188" font-family="sans-serif" font-size="13" fill="#14b8a6" text-anchor="middle">🖼️ File sharing</text>
  <rect x="420" y="168" width="130" height="30" rx="15" fill="#14b8a6" opacity="0.12"/>
  <text x="485" y="188" font-family="sans-serif" font-size="13" fill="#14b8a6" text-anchor="middle">🔐 Google OAuth</text>
  <rect x="560" y="168" width="110" height="30" rx="15" fill="#14b8a6" opacity="0.12"/>
  <text x="615" y="188" font-family="sans-serif" font-size="13" fill="#14b8a6" text-anchor="middle">👥 Friends</text>
  <text x="40" y="215" font-family="sans-serif" font-size="12" fill="#475569">Built with React · Node.js · Socket.IO · WebRTC · MongoDB · Cloudinary</text>
</svg>
