<svg width="32" height="32" viewBox="0 0 32 32" fill="none" xmlns="http://www.w3.org/2000/svg">
  <defs>
    <linearGradient id="gradient" x1="0%" y1="0%" x2="100%" y2="100%">
      <stop offset="0%" stop-color="#22d3ee" />
      <stop offset="100%" stop-color="#0891b2" />
    </linearGradient>
    <filter id="shadow" x="-2" y="-2" width="36" height="36" filterUnits="userSpaceOnUse">
      <feDropShadow dx="0" dy="1" stdDeviation="1" flood-opacity="0.3"/>
    </filter>
  </defs>
  <rect width="32" height="32" rx="8" fill="#060d14"/>
  <g filter="url(#shadow)">
    <path d="M11 10C9.34315 10 8 11.3431 8 13V19C8 20.6569 9.34315 22 11 22H11.5L13.5 24.5C13.8 24.875 14.2 24.875 14.5 24.5L16.5 22H21C22.6569 22 24 20.6569 24 19V13C24 11.3431 22.6569 10 21 10H11Z" fill="url(#gradient)"/>
    <circle cx="12.5" cy="16" r="1.5" fill="#060d14" fill-opacity="0.6"/>
    <circle cx="16" cy="16" r="1.5" fill="#060d14" fill-opacity="0.6"/>
    <circle cx="19.5" cy="16" r="1.5" fill="#060d14" fill-opacity="0.6"/>
  </g>
</svg>
